Coordinates
version=1
nRows=9
nColumns=24
inDegrees=yes

Units are S.I. units (second, meters, Newtons, ...)
If the header above contains a line with 'inDegrees', this indicates whether rotational values are in degrees (yes) or radians (no).

endheader
time	pelvis_tilt	pelvis_list	pelvis_rotation	pelvis_tx	pelvis_ty	pelvis_tz	hip_flexion_r	hip_adduction_r	hip_rotation_r	knee_angle_r	ankle_angle_r	subtalar_angle_r	mtp_angle_r	hip_flexion_l	hip_adduction_l	hip_rotation_l	knee_angle_l	ankle_angle_l	subtalar_angle_l	mtp_angle_l	lumbar_extension	lumbar_bending	lumbar_rotation
      0.00000000	      5.27165748	     -0.12527413	      1.70595957	     -0.76805949	      0.74110937	     -0.32110800	     28.60638062	     -1.82242280	     -9.82398650	    -67.46230410	     -3.06078030	    -16.06827662	      0.00000000	      0.02505175	      0.52365375	     -9.20068684	    -15.75094522	     14.34691375	     -4.41853621	      0.00000000	    -13.53160880	     -4.28432711	      7.20758185
      0.00666667	      5.30461814	     -0.09971285	      2.00231899	     -0.76072782	      0.74091742	     -0.32136499	     28.95722746	     -2.00986075	    -10.21874146	    -65.72518979	     -2.52654878	    -16.51662240	      0.00000000	     -0.72335151	      0.55205185	     -9.04824895	    -15.56164710	     14.79279429	     -4.36975400	      0.00000000	    -13.63035111	     -4.24920967	      7.04952284
      0.01333333	      5.19896955	      0.03826681	      2.12379010	     -0.75372157	      0.74036901	     -0.32159397	     29.53467948	     -2.26343156	    -10.36222147	    -63.98239454	     -2.37561196	    -16.58802110	      0.00000000	     -1.17712829	      0.69623703	     -9.14916297	    -15.62780162	     14.99628236	     -4.40823888	      0.00000000	    -13.63114930	     -4.34500952	      7.02510830
      0.02000000	      5.39995521	     -0.07823531	      2.60947154	     -0.74615567	      0.74030556	     -0.32183857	     29.37294337	     -2.35055726	    -11.06879200	    -61.70979742	     -1.66682430	    -17.22247171	      0.00000000	     -2.18330177	      0.55277289	     -8.62479168	    -15.30944987	     15.68504139	     -4.30366065	      0.00000000	    -13.90052386	     -4.14183713	      6.61696258
      0.02666667	      5.24826401	      0.09001022	      2.69449075	     -0.73914733	      0.73955778	     -0.32194882	     29.85251327	     -2.60812945	    -11.21525175	    -59.64387213	     -1.51731687	    -17.24583707	      0.00000000	     -2.59364391	      0.72833617	     -8.70808066	    -15.36909631	     15.92986635	     -4.35395536	      0.00000000	    -13.84426407	     -4.28977794	      6.58309377
      0.03333333	      5.40604583	     -0.05667365	      3.13965886	     -0.73175521	      0.73926786	     -0.32212425	     29.63312755	     -2.62470140	    -11.88876082	    -57.08800628	     -0.85494302	    -17.42002080	      0.00000000	     -3.46991804	      0.52232828	     -8.20709695	    -15.17870713	     16.55441781	     -4.30097659	      0.00000000	    -14.11613222	     -4.03835477	      6.14833618
      0.04000000	      5.33962368	     -0.01565907	      3.30105257	     -0.72465146	      0.73849805	     -0.32206722	     29.78228120	     -2.69423668	    -12.14317055	    -54.60174625	     -0.37760905	    -17.29146775	      0.00000000	     -3.99956400	      0.53679970	     -8.06410245	    -15.19615127	     17.00786464	     -4.38335943	      0.00000000	    -14.15243489	     -4.04333263	      6.04932379
      0.04666667	      5.13624610	      0.22799158	      3.30018946	     -0.71773246	      0.73742549	     -0.32198442	     30.16236184	     -2.94922007	    -12.21495286	    -52.15891114	     -0.26431986	    -17.14185022	      0.00000000	     -4.32320838	      0.79629051	     -8.15050390	    -15.33164060	     17.25901040	     -4.45542932	      0.00000000	    -14.07145198	     -4.30656993	      6.06206768
      0.05333333	      5.21636768	      0.09751079	      3.56297976	     -0.71040643	      0.73678302	     -0.32188068	     29.88484391	     -2.85920876	    -12.69113983	    -49.27766148	      1.00699220	    -15.86839764	      0.00000000	     -5.06128648	      0.59717404	     -7.81529471	    -15.27417585	     17.85179139	     -4.53934254	      0.00000000	    -14.25948564	     -4.09538413	      5.80314266
